<?xml version="1.0" encoding="UTF-8" standalone="no"?>
<!-- Created with Inkscape (http://www.inkscape.org/) -->

<svg
   version="1.1"
   id="svg1"
   xml:space="preserve"
   width="352.23843"
   height="149.54996"
   xmlns:inkscape="http://www.inkscape.org/namespaces/inkscape"
   xmlns:sodipodi="http://sodipodi.sourceforge.net/DTD/sodipodi-0.dtd"
   xmlns="http://www.w3.org/2000/svg"
   xmlns:svg="http://www.w3.org/2000/svg"><defs
     id="defs1" /><sodipodi:namedview
     id="namedview1"
     pagecolor="#ffffff"
     bordercolor="#000000"
     borderopacity="0.25"
     inkscape:showpageshadow="2"
     inkscape:pageopacity="0.0"
     inkscape:pagecheckerboard="0"
     inkscape:deskcolor="#d1d1d1" /><inkscape:clipboard
     style="font-variation-settings:normal;opacity:1;vector-effect:none;fill:#ff3131;fill-opacity:1;stroke-width:1.33333332;stroke-linecap:butt;stroke-linejoin:miter;stroke-miterlimit:4;stroke-dasharray:none;stroke-dashoffset:0;stroke-opacity:1;-inkscape-stroke:none;stop-color:#000000;stop-opacity:1"
     min="2.8865799e-15,1.4210855e-14"
     max="352.23844,149.54996"
     geom-min="2.8865799e-15,1.4210855e-14"
     geom-max="352.23844,149.54996" /><g
     id="g1"
     transform="scale(1.3333333)"><g
       id="g38"><g
         fill="#ff3131"
         fill-opacity="1"
         id="g4"
         transform="translate(-54.988807,-126.29874)"><g
           transform="translate(118.34875,238.46121)"
           id="g3"><g
             id="g2"><path
               d="m 0.796875,0 c 0.738281,-1.832031 1.238281,-4.144531 1.5,-6.9375 0.269531,-2.789062 0.410156,-5.867188 0.421875,-9.234375 0.019531,-3.375 0.03125,-6.8125 0.03125,-10.3125 0,-3.519531 -0.011719,-6.957031 -0.03125,-10.3125 -0.011719,-3.351563 -0.152344,-6.425781 -0.421875,-9.21875 -0.261719,-2.789063 -0.761719,-5.101563 -1.5,-6.9375 h 13.5 c 0.28125,2.117187 0.269531,3.921875 -0.03125,5.421875 -0.292969,1.5 -0.765625,2.804688 -1.421875,3.90625 -0.65625,1.09375 -1.390625,2.0625 -2.203125,2.90625 -0.8125,0.84375 -1.589844,1.648438 -2.328125,2.40625 -0.742188,0.761719 -1.359375,1.574219 -1.859375,2.4375 -0.492187,0.867188 -0.734375,1.882812 -0.734375,3.046875 0,0.949219 0.085938,1.421875 0.265625,1.421875 0.101563,0 0.257813,-0.179688 0.46875,-0.546875 0.21875,-0.375 0.46875,-0.84375 0.75,-1.40625 0.601563,-1.195313 1.53125,-2.164063 2.78125,-2.90625 1.25,-0.75 2.773437,-1.125 4.578125,-1.125 1.445312,0 2.617188,0.0625 3.515625,0.1875 0.90625,0.125 1.804687,0.25 2.703125,0.375 0.90625,0.125 2.0625,0.1875 3.46875,0.1875 1.769531,0 3.039062,-0.328125 3.8125,-0.984375 0.78125,-0.65625 1.171875,-1.898438 1.171875,-3.734375 0,-2.007813 -0.226563,-3.972656 -0.671875,-5.890625 -0.4375,-1.925781 -1.011719,-3.828125 -1.71875,-5.703125 h 8.21875 c -0.710938,1.835937 -1.203125,4.148437 -1.484375,6.9375 -0.28125,2.792969 -0.433594,5.867187 -0.453125,9.21875 -0.02344,3.355469 -0.03125,6.792969 -0.03125,10.3125 0,3.5 0.0078,6.9375 0.03125,10.3125 0.01953,3.367187 0.171875,6.445313 0.453125,9.234375 0.28125,2.792969 0.773437,5.105469 1.484375,6.9375 H 21.546875 c -0.355469,-2.539062 -0.292969,-4.78125 0.1875,-6.71875 0.476563,-1.945312 1.164063,-3.703125 2.0625,-5.265625 0.90625,-1.570313 1.84375,-3.019531 2.8125,-4.34375 0.96875,-1.332031 1.796875,-2.625 2.484375,-3.875 0.6875,-1.25 1.03125,-2.5625 1.03125,-3.9375 0,-0.351563 -0.08984,-0.679687 -0.265625,-0.984375 -0.179687,-0.300781 -0.460937,-0.453125 -0.84375,-0.453125 -0.492187,0 -0.964844,0.203125 -1.421875,0.609375 -0.460938,0.40625 -1,0.875 -1.625,1.40625 -0.617188,0.53125 -1.40625,1 -2.375,1.40625 -0.96875,0.40625 -2.234375,0.609375 -3.796875,0.609375 -1.40625,0 -2.527344,-0.0625 -3.359375,-0.1875 -0.824219,-0.125 -1.585938,-0.25 -2.28125,-0.375 -0.6875,-0.125 -1.542969,-0.1875 -2.5625,-0.1875 -1.730469,0 -3.046875,0.382813 -3.953125,1.140625 -0.898437,0.761719 -1.324219,2.042969 -1.28125,3.84375 0.0625,3.136719 0.269531,6.125 0.625,8.96875 C 7.335938,-5.5 8.007812,-2.71875 9,0 Z m 0,0"
               id="path1" /></g></g></g><g
         fill="#ff3131"
         fill-opacity="1"
         id="g7"
         transform="translate(-54.988807,-126.29874)"><g
           transform="translate(154.20064,238.46121)"
           id="g6"><g
             id="g5"><path
               d="M 5.40625,0 C 4.695312,-1.519531 4.050781,-3.46875 3.46875,-5.84375 2.882812,-8.226562 2.425781,-10.945312 2.09375,-14 c -0.335938,-3.0625 -0.5,-6.320312 -0.5,-9.78125 0,-2.4375 0.09375,-4.992188 0.28125,-7.671875 0.195312,-2.6875 0.59375,-5.304687 1.1875,-7.859375 0.601562,-2.5625 1.46875,-4.863281 2.59375,-6.90625 1.132812,-2.050781 2.628906,-3.6875 4.484375,-4.90625 1.851563,-1.21875 4.15625,-1.828125 6.90625,-1.828125 H 33.46875 c -0.710938,1.835937 -1.203125,4.148437 -1.484375,6.9375 -0.28125,2.792969 -0.433594,5.867187 -0.453125,9.21875 -0.02344,3.355469 -0.03125,6.792969 -0.03125,10.3125 0,3.5 0.0078,6.9375 0.03125,10.3125 0.01953,3.367187 0.171875,6.445313 0.453125,9.234375 0.28125,2.792969 0.773437,5.105469 1.484375,6.9375 H 17.3125 C 16.75,-0.632812 16.226562,-1.488281 15.75,-2.5625 c -0.480469,-1.082031 -0.71875,-2.238281 -0.71875,-3.46875 0,-1.800781 0.316406,-3.453125 0.953125,-4.953125 0.632813,-1.5 1.445313,-2.898437 2.4375,-4.203125 0.988281,-1.3125 2.03125,-2.582031 3.125,-3.8125 1.09375,-1.238281 2.132813,-2.503906 3.125,-3.796875 0.988281,-1.289063 1.800781,-2.648437 2.4375,-4.078125 0.632813,-1.425781 0.953125,-2.988281 0.953125,-4.6875 0,-0.3125 -0.02734,-0.582031 -0.07813,-0.8125 -0.05469,-0.226562 -0.183594,-0.34375 -0.390625,-0.34375 -0.355469,0 -0.746094,0.40625 -1.171875,1.21875 -0.429687,0.804688 -0.976563,1.824219 -1.640625,3.0625 -0.667969,1.242188 -1.53125,2.496094 -2.59375,3.765625 -1.242188,1.480469 -2.671875,2.890625 -4.296875,4.234375 -1.617187,1.34375 -3.296875,2.4375 -5.046875,3.28125 -1.75,0.84375 -3.476562,1.265625 -5.171875,1.265625 -0.523437,0 -0.996094,-0.02344 -1.421875,-0.07813 -0.429688,-0.05078 -0.777344,0.0078 -1.046875,0.171875 -0.261719,0.15625 -0.390625,0.554687 -0.390625,1.1875 0,1.125 0.300781,2.554687 0.90625,4.28125 0.601562,1.730469 1.351562,3.507813 2.25,5.328125 0.894531,1.8125 1.769531,3.480469 2.625,5 z M 4.984375,-32.78125 c 0,1.625 0.632813,2.867188 1.90625,3.71875 1.269531,0.84375 2.875,1.265625 4.8125,1.265625 2.613281,0 5.050781,-0.445313 7.3125,-1.34375 2.257813,-0.90625 4.191406,-2.273437 5.796875,-4.109375 1.601562,-1.84375 2.6875,-4.117188 3.25,-6.828125 0.144531,-0.675781 0.257812,-1.347656 0.34375,-2.015625 0.09375,-0.675781 0.15625,-1.25 0.1875,-1.71875 0.03125,-0.476562 -0.0078,-0.71875 -0.109375,-0.71875 -0.105469,0 -0.246094,0.265625 -0.421875,0.796875 -0.417969,1.167969 -1.078125,2.289063 -1.984375,3.359375 -0.898437,1.074219 -2.015625,1.953125 -3.359375,2.640625 -1.34375,0.6875 -2.867188,1.03125 -4.5625,1.03125 -1.054688,0 -1.945312,-0.07813 -2.671875,-0.234375 -0.71875,-0.15625 -1.453125,-0.3125 -2.203125,-0.46875 -0.742188,-0.164062 -1.636719,-0.25 -2.6875,-0.25 -1.449219,0 -2.746094,0.433594 -3.890625,1.296875 -1.148437,0.867187 -1.71875,2.058594 -1.71875,3.578125 z m 0,0"
               id="path4" /></g></g></g><g
         fill="#ff3131"
         fill-opacity="1"
         id="g10"
         transform="translate(-54.988807,-126.29874)"><g
           transform="translate(188.46381,238.46121)"
           id="g9"><g
             id="g8"><path
               d="M 16.9375,0 C 14.1875,0 11.859375,-0.726562 9.953125,-2.1875 8.046875,-3.65625 6.5,-5.644531 5.3125,-8.15625 c -1.179688,-2.507812 -2.058594,-5.34375 -2.640625,-8.5 -0.585937,-3.15625 -0.929687,-6.445312 -1.03125,-9.875 -0.105469,-3.425781 -0.039063,-6.796875 0.203125,-10.109375 0.25,-3.320313 0.613281,-6.394531 1.09375,-9.21875 0.476562,-2.820313 1,-5.1875 1.5625,-7.09375 h 15.515625 c 0,2.6875 -0.367187,5.171875 -1.09375,7.453125 -0.71875,2.273438 -1.648437,4.386719 -2.78125,6.34375 -1.125,1.960938 -2.335937,3.777344 -3.625,5.453125 -1.28125,1.679687 -2.492187,3.230469 -3.625,4.65625 -1.125,1.429687 -2.054687,2.773437 -2.78125,4.03125 -0.71875,1.25 -1.078125,2.4375 -1.078125,3.5625 0,1.949219 0.585938,3.304687 1.765625,4.0625 1.1875,0.761719 2.804687,1.140625 4.859375,1.140625 h 14.453125 c 0.53125,0 0.960937,-0.15625 1.296875,-0.46875 0.332031,-0.320312 0.5,-0.75 0.5,-1.28125 0.03125,-1.3125 0.03516,-2.660156 0.01563,-4.046875 -0.01172,-1.394531 -0.01563,-2.875 -0.01563,-4.4375 0,-2.644531 0,-5.050781 0,-7.21875 0,-2.175781 -0.07422,-4.257813 -0.21875,-6.25 -0.136719,-1.988281 -0.390625,-4.035156 -0.765625,-6.140625 -0.367187,-2.101562 -0.917969,-4.390625 -1.65625,-6.859375 h 8.25 c -0.742187,2.46875 -1.296875,4.757813 -1.671875,6.859375 -0.367188,2.105469 -0.621094,4.152344 -0.765625,6.140625 -0.136719,1.992187 -0.203125,4.074219 -0.203125,6.25 0,2.167969 0,4.574219 0,7.21875 0,2.65625 0,5.074219 0,7.25 0,2.167969 0.06641,4.246094 0.203125,6.234375 0.144531,1.992188 0.398437,4.039062 0.765625,6.140625 0.375,2.105469 0.929688,4.390625 1.671875,6.859375 z m 0,0"
               id="path7" /></g></g></g><g
         fill="#ff3131"
         fill-opacity="1"
         id="g13"
         transform="translate(-54.988807,-126.29874)"><g
           transform="translate(222.77995,238.46121)"
           id="g12"><g
             id="g11"><path
               d="m 29.859375,-7.671875 c 0,-0.882813 -0.511719,-1.6875 -1.53125,-2.40625 -1.023437,-0.726563 -2.371094,-1.476563 -4.046875,-2.25 -1.679688,-0.78125 -3.523438,-1.644531 -5.53125,-2.59375 -2.011719,-0.957031 -4.027344,-2.097656 -6.046875,-3.421875 -2.011719,-1.320312 -3.855469,-2.910156 -5.53125,-4.765625 -1.679687,-1.851563 -3.027344,-4.039063 -4.046875,-6.5625 -1.023438,-2.53125 -1.53125,-5.488281 -1.53125,-8.875 0,-1.625 0.242188,-3.28125 0.734375,-4.96875 0.5,-1.695313 1.179687,-3.257813 2.046875,-4.6875 0.863281,-1.4375 1.832031,-2.585937 2.90625,-3.453125 1.070312,-0.863281 2.191406,-1.296875 3.359375,-1.296875 H 31.1875 v 13.921875 c -0.492188,0.742188 -1.242188,1.335938 -2.25,1.78125 -1,0.4375 -2.105469,0.65625 -3.3125,0.65625 -2.085938,0 -3.929688,-0.320312 -5.53125,-0.96875 -1.605469,-0.65625 -3.039062,-1.457031 -4.296875,-2.40625 -1.25,-0.957031 -2.371094,-1.90625 -3.359375,-2.84375 -0.980469,-0.9375 -1.875,-1.726562 -2.6875,-2.375 -0.8125,-0.65625 -1.574219,-0.984375 -2.28125,-0.984375 -0.5625,0 -0.992188,0.214844 -1.28125,0.640625 -0.28125,0.417969 -0.421875,0.890625 -0.421875,1.421875 0,1.34375 0.484375,2.511719 1.453125,3.5 0.976562,0.992187 2.269531,1.917969 3.875,2.78125 1.601562,0.867187 3.367188,1.757813 5.296875,2.671875 1.925781,0.917969 3.847656,1.96875 5.765625,3.15625 1.925781,1.179688 3.691406,2.589844 5.296875,4.234375 1.601563,1.636719 2.890625,3.59375 3.859375,5.875 0.976562,2.273437 1.46875,4.996094 1.46875,8.171875 0,2.96875 -0.320312,5.46875 -0.953125,7.5 -0.636719,2.03125 -1.398437,3.578125 -2.28125,4.640625 C 28.660156,-0.523438 27.847656,0 27.109375,0 H 1.6875 v -15.46875 c 0.394531,-0.28125 0.882812,-0.507812 1.46875,-0.6875 0.582031,-0.175781 1.132812,-0.265625 1.65625,-0.265625 1.800781,0 3.476562,0.375 5.03125,1.125 1.550781,0.742187 3.035156,1.65625 4.453125,2.75 1.414063,1.09375 2.800781,2.199219 4.15625,3.3125 1.363281,1.105469 2.75,2.03125 4.15625,2.78125 1.414063,0.742187 2.914063,1.109375 4.5,1.109375 0.78125,0 1.429687,-0.242188 1.953125,-0.734375 0.53125,-0.5 0.796875,-1.03125 0.796875,-1.59375 z m 0,0"
               id="path10" /></g></g></g><g
         fill="#ff3131"
         fill-opacity="1"
         id="g16"
         transform="translate(-54.988807,-126.29874)"><g
           transform="translate(54.160682,182.45499)"
           id="g15"><g
             id="g14"><path
               d="m 2.875,-27.671875 c 0,-3.6875 -0.011719,-7.28125 -0.03125,-10.78125 -0.011719,-3.5 -0.15625,-6.707031 -0.4375,-9.625 -0.28125,-2.914063 -0.808594,-5.332031 -1.578125,-7.25 h 17.15625 c 1.875,0 3.753906,0.226563 5.640625,0.671875 1.882812,0.4375 3.59375,1.171875 5.125,2.203125 1.53125,1.03125 2.753906,2.445313 3.671875,4.234375 0.925781,1.792969 1.390625,4.03125 1.390625,6.71875 0,2.179688 -0.464844,4.0625 -1.390625,5.65625 -0.917969,1.585938 -2.054687,2.882812 -3.40625,3.890625 -1.34375,1.011719 -2.671875,1.761719 -3.984375,2.25 -1.304688,0.480469 -2.359375,0.71875 -3.171875,0.71875 0,0 0.328125,0.03906 0.984375,0.109375 0.664062,0.07422 1.535156,0.230469 2.609375,0.46875 1.070313,0.242188 2.195313,0.636719 3.375,1.1875 1.175781,0.554688 2.300781,1.308594 3.375,2.265625 1.070313,0.960937 1.9375,2.167969 2.59375,3.625 0.664063,1.460937 1,3.242187 1,5.34375 0,1.917969 -0.417969,3.828125 -1.25,5.734375 -0.824219,1.898438 -2.132813,3.621094 -3.921875,5.171875 -1.792969,1.542969 -4.125,2.777344 -7,3.703125 C 20.75,-0.457031 17.28125,0 13.21875,0 H 0.828125 C 1.597656,-1.914062 2.125,-4.332031 2.40625,-7.25 2.6875,-10.164062 2.832031,-13.382812 2.84375,-16.90625 2.863281,-20.425781 2.875,-24.015625 2.875,-27.671875 Z m 4.203125,-4.53125 c -0.367187,0 -0.640625,0.261719 -0.828125,0.78125 -0.1875,0.511719 -0.28125,1.078125 -0.28125,1.703125 0,2.292969 0.503906,4.382812 1.515625,6.265625 1.019531,1.875 2.367187,3.375 4.046875,4.5 1.675781,1.125 3.53125,1.6875 5.5625,1.6875 1.882812,0 3.40625,-0.265625 4.5625,-0.796875 1.164062,-0.53125 2.023438,-1.203125 2.578125,-2.015625 0.550781,-0.8125 0.828125,-1.625 0.828125,-2.4375 0,-1.4375 -0.539062,-2.570313 -1.609375,-3.40625 -1.0625,-0.832031 -2.453125,-1.488281 -4.171875,-1.96875 -1.71875,-0.476563 -3.554688,-0.898437 -5.5,-1.265625 -1.625,-0.332031 -2.867188,-0.738281 -3.71875,-1.21875 -0.84375,-0.476562 -1.46875,-0.898438 -1.875,-1.265625 -0.40625,-0.375 -0.777344,-0.5625 -1.109375,-0.5625 z m -0.5,-11.5625 c -0.367187,0 -0.617187,0.117187 -0.75,0.34375 -0.125,0.21875 -0.1875,0.476563 -0.1875,0.765625 0,0.773438 0.253906,1.703125 0.765625,2.796875 0.519531,1.085937 1.296875,2.152344 2.328125,3.203125 1.039063,1.054688 2.351563,1.9375 3.9375,2.65625 1.582031,0.71875 3.445313,1.078125 5.59375,1.078125 1.988281,0 3.789063,-0.171875 5.40625,-0.515625 1.625,-0.351562 2.914063,-0.9375 3.875,-1.75 0.957031,-0.8125 1.4375,-1.878906 1.4375,-3.203125 0,-0.851563 -0.289063,-1.582031 -0.859375,-2.1875 C 27.5625,-41.191406 26.78125,-41.5 25.78125,-41.5 c -0.8125,0 -1.53125,0.105469 -2.15625,0.3125 -0.625,0.199219 -1.28125,0.449219 -1.96875,0.75 -0.679688,0.292969 -1.507812,0.542969 -2.484375,0.75 -0.980469,0.199219 -2.246094,0.296875 -3.796875,0.296875 -1.542969,0 -2.792969,-0.21875 -3.75,-0.65625 -0.960938,-0.445313 -1.734375,-0.957031 -2.328125,-1.53125 -0.59375,-0.570313 -1.09375,-1.078125 -1.5,-1.515625 -0.40625,-0.445312 -0.8125,-0.671875 -1.21875,-0.671875 z m 0,0"
               id="path13" /></g></g></g><g
         fill="#ff3131"
         fill-opacity="1"
         id="g19"
         transform="translate(-54.988807,-126.29874)"><g
           transform="translate(90.785264,182.45499)"
           id="g18"><g
             id="g17"><path
               d="m 18.921875,0.828125 c -4.242187,0 -7.625,-1.078125 -10.15625,-3.234375 C 6.242188,-4.5625 4.425781,-7.757812 3.3125,-12 2.207031,-16.25 1.65625,-21.472656 1.65625,-27.671875 c 0,-6.226563 0.550781,-11.453125 1.65625,-15.671875 1.113281,-4.226562 2.929688,-7.421875 5.453125,-9.578125 2.53125,-2.15625 5.914063,-3.234375 10.15625,-3.234375 4.28125,0 7.671875,1.078125 10.171875,3.234375 2.507812,2.15625 4.316406,5.351563 5.421875,9.578125 1.113281,4.21875 1.671875,9.445312 1.671875,15.671875 0,6.199219 -0.558594,11.421875 -1.671875,15.671875 -1.105469,4.242188 -2.914063,7.4375 -5.421875,9.59375 -2.5,2.15625 -5.890625,3.234375 -10.171875,3.234375 z m 0.0625,-40.21875 c -3.179687,0 -5.820313,0.527344 -7.921875,1.578125 -2.105469,1.054688 -3.671875,2.464844 -4.703125,4.234375 -1.03125,1.773437 -1.546875,3.726563 -1.546875,5.859375 0,2.136719 0.515625,4.089844 1.546875,5.859375 1.03125,1.773437 2.597656,3.183594 4.703125,4.234375 2.101562,1.054688 4.742188,1.578125 7.921875,1.578125 3.164063,0 5.789063,-0.523437 7.875,-1.578125 2.082031,-1.050781 3.640625,-2.460938 4.671875,-4.234375 1.039062,-1.769531 1.5625,-3.722656 1.5625,-5.859375 0,-2.132812 -0.523438,-4.085938 -1.5625,-5.859375 -1.03125,-1.769531 -2.589844,-3.179687 -4.671875,-4.234375 -2.085937,-1.050781 -4.710937,-1.578125 -7.875,-1.578125 z m 0,0"
               id="path16" /></g></g></g><g
         fill="#ff3131"
         fill-opacity="1"
         id="g22"
         transform="translate(-54.988807,-126.29874)"><g
           transform="translate(128.62697,182.45499)"
           id="g21"><g
             id="g20"><path
               d="m 1.390625,-48.03125 c 0,-1.46875 0.316406,-2.816406 0.953125,-4.046875 0.644531,-1.238281 1.578125,-2.226563 2.796875,-2.96875 1.21875,-0.738281 2.675781,-1.109375 4.375,-1.109375 1.144531,0 2.164063,0.07031 3.0625,0.203125 0.90625,0.125 1.816406,0.261719 2.734375,0.40625 0.925781,0.148437 1.984375,0.21875 3.171875,0.21875 0.84375,0 1.660156,-0.04687 2.453125,-0.140625 0.789062,-0.09375 1.628906,-0.304688 2.515625,-0.640625 v 8.53125 c 0,1.804687 -0.433594,3.34375 -1.296875,4.625 -0.867188,1.273437 -2.015625,2.210937 -3.453125,2.8125 -1.4375,0.605469 -3.027344,0.796875 -4.765625,0.578125 v 20.421875 c 0,1.699219 0.367188,2.835937 1.109375,3.40625 0.738281,0.5625 1.882813,0.84375 3.4375,0.84375 0.84375,0 1.660156,-0.05078 2.453125,-0.15625 0.789062,-0.113281 1.628906,-0.335937 2.515625,-0.671875 v 8.53125 c 0,1.46875 -0.324219,2.8125 -0.96875,4.03125 C 21.835938,-1.9375 20.90625,-0.957031 19.6875,-0.21875 18.476562,0.519531 17.023438,0.890625 15.328125,0.890625 14.179688,0.890625 13.15625,0.8125 12.25,0.65625 11.351562,0.507812 10.441406,0.375 9.515625,0.25 8.597656,0.125 7.546875,0.0625 6.359375,0.0625 5.515625,0.0625 4.695312,0.113281 3.90625,0.21875 3.113281,0.332031 2.273438,0.554688 1.390625,0.890625 v -8.53125 c 0,-1.875 0.429687,-3.4375 1.296875,-4.6875 0.863281,-1.257813 2.03125,-2.179687 3.5,-2.765625 1.476562,-0.59375 3.085938,-0.78125 4.828125,-0.5625 v -20.421875 c 0,-1.726563 -0.402344,-2.867187 -1.203125,-3.421875 -0.792969,-0.550781 -1.945312,-0.828125 -3.453125,-0.828125 -0.84375,0 -1.664063,0.05859 -2.453125,0.171875 -0.792969,0.105469 -1.632812,0.324219 -2.515625,0.65625 z m 0,0"
               id="path19" /></g></g></g><g
         fill="#ff3131"
         fill-opacity="1"
         id="g25"
         transform="translate(-54.988807,-126.29874)"><g
           transform="translate(153.4675,182.45499)"
           id="g24"><g
             id="g23"><path
               d="m 19.703125,0 h -18.875 C 1.597656,-1.914062 2.125,-4.332031 2.40625,-7.25 c 0.28125,-2.914062 0.425781,-6.132812 0.4375,-9.65625 0.019531,-3.519531 0.03125,-7.109375 0.03125,-10.765625 0,-3.6875 -0.011719,-7.28125 -0.03125,-10.78125 -0.011719,-3.5 -0.15625,-6.707031 -0.4375,-9.625 -0.28125,-2.914063 -0.808594,-5.332031 -1.578125,-7.25 h 20.53125 c -1.367187,1.585937 -2.761719,3.5 -4.1875,5.75 -1.417969,2.25 -2.792969,4.703125 -4.125,7.359375 -1.324219,2.65625 -2.523437,5.40625 -3.59375,8.25 -1.0625,2.835938 -1.929687,5.648438 -2.59375,8.4375 -0.667969,2.78125 -1.039063,5.40625 -1.109375,7.875 0,0.59375 0.296875,0.890625 0.890625,0.890625 l 15.828125,0.0625 c 2.019531,0 3.5,-0.05469 4.4375,-0.171875 0.945312,-0.113281 1.421875,-0.59375 1.421875,-1.4375 0,-0.476562 -0.359375,-0.898438 -1.078125,-1.265625 -0.71875,-0.375 -1.640625,-0.765625 -2.765625,-1.171875 -1.125,-0.40625 -2.320313,-0.894531 -3.578125,-1.46875 -1.25,-0.570312 -2.4375,-1.28125 -3.5625,-2.125 -1.125,-0.84375 -2.046875,-1.910156 -2.765625,-3.203125 C 13.859375,-28.835938 13.5,-30.40625 13.5,-32.25 c 0,-1.59375 0.421875,-2.988281 1.265625,-4.1875 0.851563,-1.195312 1.96875,-2.132812 3.34375,-2.8125 1.382813,-0.6875 2.875,-1.03125 4.46875,-1.03125 1.84375,0 3.4375,0.558594 4.78125,1.671875 1.34375,1.105469 2.347656,2.339844 3.015625,3.703125 -1.148438,0.148438 -2.125,0.636719 -2.9375,1.46875 -0.8125,0.824219 -1.21875,1.976562 -1.21875,3.453125 0,1.625 0.226562,3.039063 0.6875,4.234375 0.46875,1.199219 1.050781,2.289062 1.75,3.265625 0.707031,0.96875 1.398438,1.980469 2.078125,3.03125 0.6875,1.054687 1.257813,2.246094 1.71875,3.578125 0.457031,1.324219 0.6875,2.929688 0.6875,4.8125 0,2.03125 -0.480469,3.886719 -1.4375,5.5625 -0.960937,1.679688 -2.4375,3.015625 -4.4375,4.015625 C 25.273438,-0.492188 22.753906,0 19.703125,0 Z m 0,0"
               id="path22" /></g></g></g><g
         fill="#ff3131"
         fill-opacity="1"
         id="g28"
         transform="translate(-54.988807,-126.29874)"><g
           transform="translate(187.43652,182.45499)"
           id="g27"><g
             id="g26"><path
               d="M 0.828125,0 C 1.597656,-1.914062 2.125,-4.332031 2.40625,-7.25 c 0.28125,-2.914062 0.425781,-6.132812 0.4375,-9.65625 0.019531,-3.519531 0.03125,-7.109375 0.03125,-10.765625 0,-3.6875 -0.011719,-7.28125 -0.03125,-10.78125 -0.011719,-3.5 -0.15625,-6.707031 -0.4375,-9.625 -0.28125,-2.914063 -0.808594,-5.332031 -1.578125,-7.25 h 32.3125 V -34.1875 c -1.773437,0.773438 -3.46875,1.15625 -5.09375,1.15625 -2.105469,0 -3.851563,-0.597656 -5.234375,-1.796875 -1.375,-1.195313 -2.0625,-2.8125 -2.0625,-4.84375 0,-1.507813 0.3125,-2.675781 0.9375,-3.5 0.625,-0.832031 1.40625,-1.476563 2.34375,-1.9375 0.945312,-0.46875 1.878906,-0.847656 2.796875,-1.140625 0.925781,-0.300781 1.703125,-0.660156 2.328125,-1.078125 0.625,-0.425781 0.9375,-1.023437 0.9375,-1.796875 0,-1 -0.398438,-1.773438 -1.1875,-2.328125 C 28.113281,-52.003906 27,-52.28125 25.5625,-52.28125 c -2.699219,0 -5.148438,0.804688 -7.34375,2.40625 -2.1875,1.605469 -4.085938,3.746094 -5.6875,6.421875 -1.605469,2.667969 -2.90625,5.625 -3.90625,8.875 -0.21875,0.742187 0.00391,0.886719 0.671875,0.4375 0.738281,-0.476563 1.53125,-0.851563 2.375,-1.125 0.851563,-0.28125 1.796875,-0.421875 2.828125,-0.421875 1.582031,-0.03125 3.054688,0.304688 4.421875,1 1.363281,0.699219 2.457031,1.683594 3.28125,2.953125 0.832031,1.273437 1.25,2.757813 1.25,4.453125 0,1.699219 -0.417969,3.15625 -1.25,4.375 -0.824219,1.21875 -1.855469,2.140625 -3.09375,2.765625 -1.230469,0.625 -2.476563,0.9375 -3.734375,0.9375 -0.84375,0 -1.695312,-0.160156 -2.546875,-0.484375 -0.84375,-0.332031 -1.554687,-0.765625 -2.125,-1.296875 -0.574219,-0.539063 -0.859375,-1.144531 -0.859375,-1.8125 1.363281,0 2.367188,-0.421875 3.015625,-1.265625 0.644531,-0.851562 0.96875,-1.773438 0.96875,-2.765625 0.03906,-0.882813 -0.1875,-1.6875 -0.6875,-2.40625 -0.5,-0.71875 -1.289063,-1.078125 -2.359375,-1.078125 -1.179688,0 -2.109375,0.464844 -2.796875,1.390625 C 7.304688,-28.003906 6.8125,-26.851562 6.5,-25.46875 c -0.3125,1.375 -0.515625,2.777344 -0.609375,4.203125 C 5.796875,-19.847656 5.75,-18.644531 5.75,-17.65625 c 0,0.59375 0.296875,0.890625 0.890625,0.890625 1.25,0 2.25,0 3,0 0.757813,0 1.519531,0.01172 2.28125,0.03125 0.757813,0.02344 1.75,0.03125 2.96875,0.03125 1.945313,0 4.035156,-0.175781 6.265625,-0.53125 2.238281,-0.351563 4.4375,-0.988281 6.59375,-1.90625 2.15625,-0.925781 4.0625,-2.203125 5.71875,-3.828125 V 0 Z m 0,0"
               id="path25" /></g></g></g><g
         fill="#ff3131"
         fill-opacity="1"
         id="g31"
         transform="translate(-54.988807,-126.29874)"><g
           transform="translate(223.12058,182.45499)"
           id="g30"><g
             id="g29"><path
               d="M 0.828125,-55.328125 H 17.65625 c 1.507812,0 3.128906,0.15625 4.859375,0.46875 1.738281,0.3125 3.445313,0.839844 5.125,1.578125 1.675781,0.742188 3.195313,1.742188 4.5625,3 1.363281,1.25 2.457031,2.835938 3.28125,4.75 0.832031,1.917969 1.25,4.203125 1.25,6.859375 0,2.179687 -0.265625,4.375 -0.796875,6.59375 C 35.40625,-29.867188 34.5,-27.84375 33.21875,-26 c -1.273438,1.84375 -2.980469,3.320312 -5.125,4.421875 -2.136719,1.105469 -4.808594,1.65625 -8.015625,1.65625 -2.210937,0 -4.089844,-0.347656 -5.640625,-1.046875 -1.554688,-0.695312 -2.835938,-1.503906 -3.84375,-2.421875 -1.011719,-0.925781 -1.835938,-1.738281 -2.46875,-2.4375 -0.625,-0.707031 -1.140625,-1.0625 -1.546875,-1.0625 -0.367187,0 -0.382813,0.386719 -0.046875,1.15625 0.695312,1.554687 1.726562,3.09375 3.09375,4.625 1.363281,1.53125 3.097656,2.796875 5.203125,3.796875 2.101563,0.992188 4.59375,1.484375 7.46875,1.484375 1,0 2.148437,-0.05078 3.453125,-0.15625 1.3125,-0.113281 2.617188,-0.300781 3.921875,-0.5625 1.3125,-0.257813 2.539063,-0.617187 3.6875,-1.078125 1.144531,-0.457031 2.050781,-1.019531 2.71875,-1.6875 v 17.09375 c -0.117187,0.523438 -0.625,1.011719 -1.53125,1.46875 -0.898437,0.460938 -2.023437,0.8320312 -3.375,1.125 -1.34375,0.300781 -2.714844,0.453125 -4.109375,0.453125 -2.625,0 -4.898438,-0.496094 -6.8125,-1.484375 -1.917969,-1 -3.558594,-2.289062 -4.921875,-3.875 -1.367187,-1.59375 -2.511719,-3.28125 -3.4375,-5.0625 -0.917969,-1.789062 -1.671875,-3.476562 -2.265625,-5.0625 -0.59375,-1.59375 -1.09375,-2.882812 -1.5,-3.875 -0.398438,-1 -0.761719,-1.5 -1.09375,-1.5 -0.304688,0 -0.558594,0.121094 -0.765625,0.359375 -0.199219,0.242187 -0.296875,0.765625 -0.296875,1.578125 0,3.28125 0.203125,6.40625 0.609375,9.375 0.40625,2.96875 1.125,5.875 2.15625,8.71875 H 0.828125 C 1.597656,-1.914062 2.125,-4.332031 2.40625,-7.25 c 0.28125,-2.914062 0.425781,-6.132812 0.4375,-9.65625 0.019531,-3.519531 0.03125,-7.109375 0.03125,-10.765625 0,-3.6875 -0.011719,-7.28125 -0.03125,-10.78125 -0.011719,-3.5 -0.15625,-6.707031 -0.4375,-9.625 -0.28125,-2.914063 -0.808594,-5.332031 -1.578125,-7.25 z m 6.640625,12.28125 c -0.480469,0 -0.871094,0.195313 -1.171875,0.578125 -0.292969,0.386719 -0.4375,0.839844 -0.4375,1.359375 0,1.40625 0.597656,2.734375 1.796875,3.984375 1.207031,1.25 2.878906,2.265625 5.015625,3.046875 2.132813,0.773437 4.640625,1.15625 7.515625,1.15625 2.332031,0 4.519531,-0.171875 6.5625,-0.515625 2.050781,-0.351562 3.710938,-0.9375 4.984375,-1.75 1.269531,-0.8125 1.90625,-1.878906 1.90625,-3.203125 0,-0.851563 -0.355469,-1.582031 -1.0625,-2.1875 -0.699219,-0.613281 -1.46875,-0.921875 -2.3125,-0.921875 -1.074219,0 -2.007813,0.105469 -2.796875,0.3125 -0.792969,0.199219 -1.59375,0.449219 -2.40625,0.75 -0.8125,0.292969 -1.792969,0.542969 -2.9375,0.75 -1.136719,0.199219 -2.589844,0.296875 -4.359375,0.296875 -1.4375,0 -2.703125,-0.179687 -3.796875,-0.546875 -1.085938,-0.375 -2.027344,-0.800781 -2.828125,-1.28125 -0.792969,-0.476562 -1.484375,-0.898438 -2.078125,-1.265625 -0.585938,-0.375 -1.117188,-0.5625 -1.59375,-0.5625 z m 0,0"
               id="path28" /></g></g></g><g
         fill="#ff3131"
         fill-opacity="1"
         id="g34"
         transform="translate(-54.988807,-126.29874)"><g
           transform="translate(260.68567,182.45499)"
           id="g33"><g
             id="g32"><path
               d="m 2.765625,-46.921875 c 0,-1.695313 0.410156,-3.242187 1.234375,-4.640625 0.832031,-1.40625 1.953125,-2.519531 3.359375,-3.34375 1.40625,-0.832031 2.953125,-1.25 4.640625,-1.25 1.695312,0 3.265625,0.429688 4.703125,1.28125 1.4375,0.84375 2.585937,2.125 3.453125,3.84375 0.875,1.710938 1.3125,3.871094 1.3125,6.484375 0,1.59375 -0.226562,3.230469 -0.671875,4.90625 -0.4375,1.679687 -1.085937,3.230469 -1.9375,4.65625 -0.84375,1.417969 -1.914063,2.558594 -3.203125,3.421875 -1.292969,0.867188 -2.804688,1.296875 -4.53125,1.296875 -1,0 -1.835938,-0.191406 -2.5,-0.578125 -0.65625,-0.382812 -0.984375,-0.726562 -0.984375,-1.03125 0.957031,0 1.8125,-0.328125 2.5625,-0.984375 0.757813,-0.664063 1.296875,-1.453125 1.609375,-2.359375 0.3125,-0.90625 0.265625,-1.722656 -0.140625,-2.453125 -1.65625,0 -3.164063,-0.421875 -4.515625,-1.265625 -1.34375,-0.851562 -2.414062,-1.976562 -3.203125,-3.375 -0.792969,-1.40625 -1.1875,-2.941406 -1.1875,-4.609375 z m 0,0"
               id="path31" /></g></g></g><g
         fill="#ff3131"
         fill-opacity="1"
         id="g37"
         transform="translate(-54.988807,-126.29874)"><g
           transform="translate(284.91764,182.45499)"
           id="g36"><g
             id="g35"><path
               d="m 31.203125,-8.015625 c 0,-0.925781 -0.539063,-1.765625 -1.609375,-2.515625 -1.0625,-0.757812 -2.476562,-1.546875 -4.234375,-2.359375 -1.75,-0.8125 -3.679687,-1.710937 -5.78125,-2.703125 -2.09375,-1 -4.195313,-2.191406 -6.296875,-3.578125 C 11.175781,-20.554688 9.25,-22.21875 7.5,-24.15625 5.75,-26.09375 4.335938,-28.378906 3.265625,-31.015625 2.191406,-33.648438 1.65625,-36.738281 1.65625,-40.28125 c 0,-1.695312 0.253906,-3.429688 0.765625,-5.203125 0.519531,-1.769531 1.234375,-3.398437 2.140625,-4.890625 0.90625,-1.488281 1.921875,-2.6875 3.046875,-3.59375 1.125,-0.90625 2.296875,-1.359375 3.515625,-1.359375 h 21.46875 v 14.546875 c -0.523438,0.78125 -1.308594,1.402344 -2.359375,1.859375 -1.054687,0.460937 -2.203125,0.6875 -3.453125,0.6875 -2.179688,0 -4.105469,-0.335937 -5.78125,-1.015625 -1.679688,-0.6875 -3.171875,-1.523438 -4.484375,-2.515625 -1.3125,-1 -2.484375,-1.988281 -3.515625,-2.96875 -1.03125,-0.976563 -1.976562,-1.804687 -2.828125,-2.484375 -0.84375,-0.6875 -1.636719,-1.03125 -2.375,-1.03125 -0.585937,0 -1.027344,0.226562 -1.328125,0.671875 -0.292969,0.4375 -0.4375,0.933594 -0.4375,1.484375 0,1.40625 0.503906,2.625 1.515625,3.65625 1.019531,1.03125 2.367187,2 4.046875,2.90625 1.675781,0.90625 3.519531,1.839844 5.53125,2.796875 2.007812,0.960937 4.019531,2.058594 6.03125,3.296875 2.007812,1.230469 3.851562,2.703125 5.53125,4.421875 1.675781,1.710937 3.019531,3.757813 4.03125,6.140625 1.019531,2.375 1.53125,5.226562 1.53125,8.546875 0,3.09375 -0.335938,5.703125 -1,7.828125 -0.667969,2.125 -1.464844,3.742188 -2.390625,4.84375 C 29.941406,-0.550781 29.097656,0 28.328125,0 h -26.5625 v -16.15625 c 0.40625,-0.289062 0.910156,-0.53125 1.515625,-0.71875 0.613281,-0.1875 1.195312,-0.28125 1.75,-0.28125 1.882812,0 3.632812,0.390625 5.25,1.171875 1.625,0.773437 3.175781,1.730469 4.65625,2.875 1.476562,1.148437 2.925781,2.304687 4.34375,3.46875 1.414062,1.15625 2.863281,2.121094 4.34375,2.890625 1.476562,0.773438 3.046875,1.15625 4.703125,1.15625 0.8125,0 1.492187,-0.253906 2.046875,-0.765625 0.550781,-0.519531 0.828125,-1.070313 0.828125,-1.65625 z m 0,0"
               id="path34" /></g></g></g></g></g></svg>
