<?xml version="1.0" encoding="UTF-8" standalone="no"?>
<!-- Created with Inkscape (http://www.inkscape.org/) -->

<svg
   version="1.1"
   id="svg1"
   xml:space="preserve"
   width="488.44397"
   height="74.6875"
   xmlns:inkscape="http://www.inkscape.org/namespaces/inkscape"
   xmlns:sodipodi="http://sodipodi.sourceforge.net/DTD/sodipodi-0.dtd"
   xmlns="http://www.w3.org/2000/svg"
   xmlns:svg="http://www.w3.org/2000/svg"><defs
     id="defs1" /><sodipodi:namedview
     id="namedview1"
     pagecolor="#ffffff"
     bordercolor="#000000"
     borderopacity="0.25"
     inkscape:showpageshadow="2"
     inkscape:pageopacity="0.0"
     inkscape:pagecheckerboard="0"
     inkscape:deskcolor="#d1d1d1" /><inkscape:clipboard
     style="font-variation-settings:normal;opacity:1;vector-effect:none;fill:#ff3131;fill-opacity:1;stroke-width:1.33333335;stroke-linecap:butt;stroke-linejoin:miter;stroke-miterlimit:4;stroke-dasharray:none;stroke-dashoffset:0;stroke-opacity:1;-inkscape-stroke:none;stop-color:#000000;stop-opacity:1"
     min="-4.4408921e-16,6.6666667e-06"
     max="488.44395,74.687508"
     geom-min="-4.4408921e-16,6.6666667e-06"
     geom-max="488.44395,74.687508" /><g
     id="g1"
     transform="matrix(1.3333334,0,0,1.3333334,0,-6.666667e-6)"><g
       id="g35"
       transform="translate(-3.917973,-125.74436)"><g
         fill="#ff3131"
         fill-opacity="1"
         id="g4"><g
           transform="translate(3.105473,180.88499)"
           id="g3"><g
             id="g2"><path
               d="m 2.828125,-27.171875 c 0,-3.613281 -0.011719,-7.140625 -0.03125,-10.578125 -0.023437,-3.445312 -0.167969,-6.597656 -0.4375,-9.453125 -0.273437,-2.863281 -0.789063,-5.238281 -1.546875,-7.125 h 16.84375 c 1.84375,0 3.6875,0.21875 5.53125,0.65625 1.851562,0.429687 3.53125,1.152344 5.03125,2.171875 1.507812,1.011719 2.710938,2.398438 3.609375,4.15625 0.90625,1.75 1.359375,3.949219 1.359375,6.59375 0,2.136719 -0.453125,3.984375 -1.359375,5.546875 C 30.929688,-33.648438 29.820312,-32.375 28.5,-31.375 c -1.324219,1 -2.632812,1.734375 -3.921875,2.203125 -1.28125,0.46875 -2.324219,0.703125 -3.125,0.703125 0,0 0.328125,0.03906 0.984375,0.109375 0.65625,0.07422 1.503906,0.230469 2.546875,0.46875 1.050781,0.230469 2.15625,0.617187 3.3125,1.15625 1.164063,0.542969 2.269531,1.289063 3.3125,2.234375 1.050781,0.9375 1.90625,2.125 2.5625,3.5625 0.65625,1.429688 0.984375,3.171875 0.984375,5.234375 0,1.886719 -0.414062,3.761719 -1.234375,5.625 -0.8125,1.867187 -2.101563,3.558594 -3.859375,5.078125 -1.75,1.523438 -4.042969,2.734375 -6.875,3.640625 C 20.363281,-0.453125 16.960938,0 12.984375,0 H 0.8125 c 0.757812,-1.882812 1.273438,-4.253906 1.546875,-7.109375 0.269531,-2.863281 0.414063,-6.023437 0.4375,-9.484375 0.019531,-3.457031 0.03125,-6.984375 0.03125,-10.578125 z m 4.125,-4.453125 c -0.367187,0 -0.636719,0.257812 -0.8125,0.765625 -0.179687,0.511719 -0.265625,1.074219 -0.265625,1.6875 0,2.242187 0.492188,4.289063 1.484375,6.140625 1,1.84375 2.320313,3.320312 3.96875,4.421875 1.644531,1.105469 3.460937,1.65625 5.453125,1.65625 1.851562,0 3.347656,-0.257813 4.484375,-0.78125 1.144531,-0.53125 1.988281,-1.191406 2.53125,-1.984375 0.539063,-0.800781 0.8125,-1.597656 0.8125,-2.390625 0,-1.414063 -0.527344,-2.53125 -1.578125,-3.34375 -1.054688,-0.8125 -2.421875,-1.453125 -4.109375,-1.921875 -1.679687,-0.476562 -3.476563,-0.894531 -5.390625,-1.25 -1.59375,-0.332031 -2.808594,-0.734375 -3.640625,-1.203125 -0.835937,-0.46875 -1.453125,-0.882813 -1.859375,-1.25 C 7.632812,-31.441406 7.273438,-31.625 6.953125,-31.625 Z M 6.46875,-42.96875 c -0.367188,0 -0.609375,0.109375 -0.734375,0.328125 -0.125,0.210937 -0.1875,0.460937 -0.1875,0.75 0,0.761719 0.25,1.679687 0.75,2.75 0.507813,1.0625 1.269531,2.117187 2.28125,3.15625 1.019531,1.03125 2.304687,1.902344 3.859375,2.609375 1.5625,0.699219 3.390625,1.046875 5.484375,1.046875 1.957031,0 3.734375,-0.171875 5.328125,-0.515625 1.59375,-0.34375 2.859375,-0.910156 3.796875,-1.703125 0.945313,-0.800781 1.421875,-1.851563 1.421875,-3.15625 0,-0.832031 -0.28125,-1.546875 -0.84375,-2.140625 -0.5625,-0.601562 -1.335938,-0.90625 -2.3125,-0.90625 -0.792969,0 -1.496094,0.101562 -2.109375,0.296875 -0.617187,0.199219 -1.261719,0.445313 -1.9375,0.734375 -0.667969,0.292969 -1.480469,0.539062 -2.4375,0.734375 -0.960937,0.199219 -2.199219,0.296875 -3.71875,0.296875 -1.523437,0 -2.757813,-0.210938 -3.703125,-0.640625 -0.9375,-0.4375 -1.699219,-0.9375 -2.28125,-1.5 -0.574219,-0.5625 -1.0625,-1.054687 -1.46875,-1.484375 -0.398438,-0.4375 -0.792969,-0.65625 -1.1875,-0.65625 z m 0,0"
               id="path2" /></g></g></g><g
         fill="#ff3131"
         fill-opacity="1"
         id="g7"><g
           transform="translate(39.070704,180.88499)"
           id="g6"><g
             id="g5"><path
               d="m 18.578125,0.8125 c -4.167969,0 -7.492187,-1.054688 -9.96875,-3.171875 C 6.128906,-4.484375 4.34375,-7.625 3.25,-11.78125 2.164062,-15.945312 1.625,-21.078125 1.625,-27.171875 c 0,-6.113281 0.539062,-11.242187 1.625,-15.390625 1.09375,-4.144531 2.878906,-7.273438 5.359375,-9.390625 2.476563,-2.125 5.800781,-3.1875 9.96875,-3.1875 4.195313,0 7.523437,1.0625 9.984375,3.1875 2.46875,2.117187 4.242188,5.246094 5.328125,9.390625 1.09375,4.148438 1.640625,9.277344 1.640625,15.390625 0,6.09375 -0.546875,11.226563 -1.640625,15.390625 C 32.804688,-7.625 31.03125,-4.484375 28.5625,-2.359375 26.101562,-0.242188 22.773438,0.8125 18.578125,0.8125 Z m 0.0625,-39.5 c -3.117187,0 -5.710937,0.523438 -7.78125,1.5625 -2.0625,1.03125 -3.605469,2.417969 -4.625,4.15625 -1.011719,1.730469 -1.515625,3.648438 -1.515625,5.75 0,2.105469 0.503906,4.027344 1.515625,5.765625 1.019531,1.730469 2.5625,3.117187 4.625,4.15625 2.070313,1.03125 4.664063,1.546875 7.78125,1.546875 3.113281,0 5.691406,-0.515625 7.734375,-1.546875 2.050781,-1.039063 3.582031,-2.425781 4.59375,-4.15625 1.007812,-1.738281 1.515625,-3.660156 1.515625,-5.765625 0,-2.101562 -0.507813,-4.019531 -1.515625,-5.75 -1.011719,-1.738281 -2.542969,-3.125 -4.59375,-4.15625 -2.042969,-1.039062 -4.621094,-1.5625 -7.734375,-1.5625 z m 0,0"
               id="path4" /></g></g></g><g
         fill="#ff3131"
         fill-opacity="1"
         id="g10"><g
           transform="translate(76.231155,180.88499)"
           id="g9"><g
             id="g8"><path
               d="m 1.359375,-47.15625 c 0,-1.445312 0.316406,-2.773438 0.953125,-3.984375 0.632812,-1.21875 1.546875,-2.1875 2.734375,-2.90625 1.195313,-0.726563 2.628906,-1.09375 4.296875,-1.09375 1.125,0 2.128906,0.0625 3.015625,0.1875 0.882813,0.125 1.78125,0.261719 2.6875,0.40625 0.90625,0.148437 1.9375,0.21875 3.09375,0.21875 0.832031,0 1.640625,-0.03906 2.421875,-0.125 0.78125,-0.09375 1.601562,-0.304687 2.46875,-0.640625 v 8.375 c 0,1.773438 -0.429688,3.28125 -1.28125,4.53125 -0.84375,1.25 -1.976562,2.179688 -3.390625,2.78125 -1.40625,0.59375 -2.964844,0.78125 -4.671875,0.5625 v 20.046875 c 0,1.667969 0.359375,2.78125 1.078125,3.34375 0.726563,0.5625 1.851563,0.84375 3.375,0.84375 0.832031,0 1.640625,-0.05078 2.421875,-0.15625 0.78125,-0.113281 1.601562,-0.332031 2.46875,-0.65625 V -7.0625 c 0,1.449219 -0.320312,2.773438 -0.953125,3.96875 -0.625,1.199219 -1.539063,2.164062 -2.734375,2.890625 C 18.144531,0.515625 16.710938,0.875 15.046875,0.875 13.921875,0.875 12.914062,0.800781 12.03125,0.65625 11.144531,0.507812 10.25,0.367188 9.34375,0.234375 8.4375,0.109375 7.40625,0.046875 6.25,0.046875 c -0.835938,0 -1.640625,0.0507812 -2.421875,0.15625 C 3.046875,0.316406 2.222656,0.539062 1.359375,0.875 V -7.5 c 0,-1.84375 0.421875,-3.378906 1.265625,-4.609375 0.851562,-1.238281 2.003906,-2.144531 3.453125,-2.71875 1.457031,-0.582031 3.035156,-0.765625 4.734375,-0.546875 v -20.046875 c 0,-1.695313 -0.390625,-2.816406 -1.171875,-3.359375 -0.78125,-0.550781 -1.914063,-0.828125 -3.390625,-0.828125 -0.835938,0 -1.640625,0.05859 -2.421875,0.171875 -0.78125,0.105469 -1.605469,0.320312 -2.46875,0.640625 z m 0,0"
               id="path7" /></g></g></g><g
         fill="#ff3131"
         fill-opacity="1"
         id="g13"><g
           transform="translate(100.62449,180.88499)"
           id="g12"><g
             id="g11"><path
               d="M 19.34375,0 H 0.8125 c 0.757812,-1.882812 1.273438,-4.253906 1.546875,-7.109375 0.269531,-2.863281 0.414063,-6.023437 0.4375,-9.484375 0.019531,-3.457031 0.03125,-6.984375 0.03125,-10.578125 0,-3.613281 -0.011719,-7.140625 -0.03125,-10.578125 -0.023437,-3.445312 -0.167969,-6.597656 -0.4375,-9.453125 -0.273437,-2.863281 -0.789063,-5.238281 -1.546875,-7.125 h 20.15625 c -1.34375,1.5625 -2.714844,3.449219 -4.109375,5.65625 -1.386719,2.210937 -2.734375,4.617187 -4.046875,7.21875 -1.304688,2.605469 -2.480469,5.304687 -3.53125,8.09375 -1.042969,2.792969 -1.890625,5.558594 -2.546875,8.296875 -0.648437,2.730469 -1.007813,5.308594 -1.078125,7.734375 0,0.574219 0.285156,0.859375 0.859375,0.859375 l 15.546875,0.0625 c 1.988281,0 3.441406,-0.05078 4.359375,-0.15625 0.925781,-0.113281 1.390625,-0.585938 1.390625,-1.421875 0,-0.46875 -0.355469,-0.882813 -1.0625,-1.25 -0.699219,-0.363281 -1.601562,-0.742187 -2.703125,-1.140625 -1.105469,-0.394531 -2.277344,-0.875 -3.515625,-1.4375 -1.230469,-0.5625 -2.398438,-1.257812 -3.5,-2.09375 -1.105469,-0.832031 -2.011719,-1.878906 -2.71875,-3.140625 -0.710938,-1.269531 -1.0625,-2.8125 -1.0625,-4.625 0,-1.5625 0.414062,-2.929687 1.25,-4.109375 0.832031,-1.175781 1.925781,-2.097656 3.28125,-2.765625 1.363281,-0.664063 2.828125,-1 4.390625,-1 1.800781,0 3.363281,0.542969 4.6875,1.625 1.320313,1.085937 2.3125,2.296875 2.96875,3.640625 -1.125,0.148438 -2.089844,0.625 -2.890625,1.4375 -0.792969,0.8125 -1.1875,1.945312 -1.1875,3.390625 0,1.59375 0.222656,2.980469 0.671875,4.15625 0.457031,1.179687 1.03125,2.25 1.71875,3.21875 0.6875,0.960937 1.363281,1.953125 2.03125,2.984375 0.675781,1.03125 1.238281,2.199219 1.6875,3.5 0.457031,1.304688 0.6875,2.882812 0.6875,4.734375 0,1.992187 -0.476563,3.808594 -1.421875,5.453125 -0.9375,1.648438 -2.386719,2.960938 -4.34375,3.9375 C 24.820312,-0.488281 22.34375,0 19.34375,0 Z m 0,0"
               id="path10" /></g></g></g><g
         fill="#ff3131"
         fill-opacity="1"
         id="g16"><g
           transform="translate(133.98196,180.88499)"
           id="g15"><g
             id="g14"><path
               d="m 0.8125,0 c 0.757812,-1.882812 1.273438,-4.253906 1.546875,-7.109375 0.269531,-2.863281 0.414063,-6.023437 0.4375,-9.484375 0.019531,-3.457031 0.03125,-6.984375 0.03125,-10.578125 0,-3.613281 -0.011719,-7.140625 -0.03125,-10.578125 -0.023437,-3.445312 -0.167969,-6.597656 -0.4375,-9.453125 -0.273437,-2.863281 -0.789063,-5.238281 -1.546875,-7.125 h 31.734375 v 20.75 c -1.742187,0.761719 -3.40625,1.140625 -5,1.140625 -2.0625,0 -3.777344,-0.585938 -5.140625,-1.765625 -1.355469,-1.175781 -2.03125,-2.757813 -2.03125,-4.75 0,-1.488281 0.304688,-2.640625 0.921875,-3.453125 0.613281,-0.8125 1.378906,-1.441406 2.296875,-1.890625 0.925781,-0.457031 1.84375,-0.832031 2.75,-1.125 0.90625,-0.289063 1.664062,-0.644531 2.28125,-1.0625 0.613281,-0.414063 0.921875,-1.003906 0.921875,-1.765625 0,-0.96875 -0.390625,-1.722656 -1.171875,-2.265625 -0.773438,-0.550781 -1.867188,-0.828125 -3.28125,-0.828125 -2.636719,0 -5.03125,0.792969 -7.1875,2.375 -2.15625,1.574219 -4.027344,3.671875 -5.609375,6.296875 -1.574219,2.625 -2.851563,5.53125 -3.828125,8.71875 -0.210938,0.71875 0.00781,0.867187 0.65625,0.4375 0.726562,-0.476563 1.507812,-0.851563 2.34375,-1.125 0.832031,-0.269531 1.753906,-0.40625 2.765625,-0.40625 1.550781,-0.03125 3,0.296875 4.34375,0.984375 1.34375,0.6875 2.421875,1.65625 3.234375,2.90625 0.8125,1.25 1.21875,2.710938 1.21875,4.375 0,1.667969 -0.40625,3.101562 -1.21875,4.296875 -0.8125,1.1875 -1.828125,2.089844 -3.046875,2.703125 -1.210937,0.617188 -2.429687,0.921875 -3.65625,0.921875 -0.835937,0 -1.667969,-0.160156 -2.5,-0.484375 -0.835937,-0.320312 -1.53125,-0.742188 -2.09375,-1.265625 -0.5625,-0.53125 -0.84375,-1.125 -0.84375,-1.78125 1.34375,0 2.328125,-0.410156 2.953125,-1.234375 0.632812,-0.832031 0.953125,-1.738281 0.953125,-2.71875 0.03906,-0.875 -0.183594,-1.660156 -0.671875,-2.359375 -0.492188,-0.707031 -1.261719,-1.0625 -2.3125,-1.0625 -1.15625,0 -2.074219,0.453125 -2.75,1.359375 -0.667969,0.898438 -1.15625,2.027344 -1.46875,3.390625 -0.304688,1.355469 -0.5,2.730469 -0.59375,4.125 -0.085938,1.398437 -0.125,2.585937 -0.125,3.5625 0,0.574219 0.285156,0.859375 0.859375,0.859375 1.226563,0 2.210937,0 2.953125,0 0.75,0 1.492188,0.01172 2.234375,0.03125 0.75,0.02344 1.71875,0.03125 2.90625,0.03125 1.925781,0 3.984375,-0.171875 6.171875,-0.515625 2.1875,-0.34375 4.335938,-0.96875 6.453125,-1.875 2.125,-0.90625 4.003906,-2.15625 5.640625,-3.75 V 0 Z m 0,0"
               id="path13" /></g></g></g><g
         fill="#ff3131"
         fill-opacity="1"
         id="g19"><g
           transform="translate(169.02361,180.88499)"
           id="g18"><g
             id="g17"><path
               d="m 0.8125,-54.328125 h 16.515625 c 1.488281,0 3.082031,0.15625 4.78125,0.46875 1.707031,0.304687 3.382813,0.820313 5.03125,1.546875 1.644531,0.71875 3.132813,1.699219 4.46875,2.9375 1.34375,1.230469 2.421875,2.789062 3.234375,4.671875 0.820312,1.875 1.234375,4.121094 1.234375,6.734375 0,2.136719 -0.265625,4.292969 -0.796875,6.46875 -0.523438,2.167969 -1.40625,4.15625 -2.65625,5.96875 -1.25,1.8125 -2.929688,3.261719 -5.03125,4.34375 -2.09375,1.085938 -4.71875,1.625 -7.875,1.625 -2.167969,0 -4.015625,-0.34375 -5.546875,-1.03125 -1.523437,-0.6875 -2.78125,-1.484375 -3.78125,-2.390625 -0.992187,-0.90625 -1.792969,-1.703125 -2.40625,-2.390625 -0.617187,-0.6875 -1.121094,-1.03125 -1.515625,-1.03125 -0.367188,0 -0.386719,0.382812 -0.0625,1.140625 0.6875,1.523437 1.703125,3.039063 3.046875,4.546875 1.34375,1.5 3.046875,2.742188 5.109375,3.71875 2.0625,0.980469 4.503906,1.46875 7.328125,1.46875 0.976563,0 2.109375,-0.05078 3.390625,-0.15625 1.289062,-0.113281 2.578125,-0.296875 3.859375,-0.546875 1.289063,-0.257813 2.492187,-0.613281 3.609375,-1.0625 1.125,-0.457031 2.015625,-1.007813 2.671875,-1.65625 v 16.78125 c -0.105469,0.511719 -0.605469,0.996094 -1.5,1.453125 -0.886719,0.449219 -1.992187,0.8125 -3.3125,1.09375 C 29.285156,0.664062 27.9375,0.8125 26.5625,0.8125 23.988281,0.8125 21.757812,0.320312 19.875,-0.65625 18,-1.632812 16.390625,-2.898438 15.046875,-4.453125 c -1.34375,-1.5625 -2.46875,-3.21875 -3.375,-4.96875 -0.898437,-1.757813 -1.636719,-3.414063 -2.21875,-4.96875 -0.585937,-1.5625 -1.074219,-2.832031 -1.46875,-3.8125 -0.398437,-0.976563 -0.757813,-1.46875 -1.078125,-1.46875 -0.292969,0 -0.539062,0.121094 -0.734375,0.359375 -0.199219,0.242188 -0.296875,0.757812 -0.296875,1.546875 0,3.21875 0.195312,6.289063 0.59375,9.203125 C 6.863281,-5.644531 7.566406,-2.789062 8.578125,0 H 0.8125 c 0.757812,-1.882812 1.273438,-4.253906 1.546875,-7.109375 0.269531,-2.863281 0.414063,-6.023437 0.4375,-9.484375 0.019531,-3.457031 0.03125,-6.984375 0.03125,-10.578125 0,-3.613281 -0.011719,-7.140625 -0.03125,-10.578125 -0.023437,-3.445312 -0.167969,-6.597656 -0.4375,-9.453125 -0.273437,-2.863281 -0.789063,-5.238281 -1.546875,-7.125 z m 6.515625,12.0625 c -0.46875,0 -0.851563,0.195313 -1.140625,0.578125 -0.28125,0.375 -0.421875,0.820312 -0.421875,1.328125 0,1.375 0.585937,2.679687 1.765625,3.90625 1.175781,1.230469 2.8125,2.226563 4.90625,2.984375 2.101562,0.761719 4.566406,1.140625 7.390625,1.140625 2.28125,0 4.425781,-0.171875 6.4375,-0.515625 2.007813,-0.34375 3.640625,-0.910156 4.890625,-1.703125 1.25,-0.800781 1.875,-1.851563 1.875,-3.15625 C 33.03125,-38.535156 32.6875,-39.25 32,-39.84375 31.3125,-40.445312 30.550781,-40.75 29.71875,-40.75 c -1.054688,0 -1.96875,0.101562 -2.75,0.296875 -0.773438,0.199219 -1.558594,0.445313 -2.359375,0.734375 -0.792969,0.292969 -1.75,0.539062 -2.875,0.734375 -1.125,0.199219 -2.558594,0.296875 -4.296875,0.296875 -1.40625,0 -2.648438,-0.175781 -3.71875,-0.53125 -1.074219,-0.363281 -2,-0.78125 -2.78125,-1.25 -0.773438,-0.476562 -1.449219,-0.894531 -2.03125,-1.25 -0.574219,-0.363281 -1.101562,-0.546875 -1.578125,-0.546875 z m 0,0"
               id="path16" /></g></g></g><g
         fill="#ff3131"
         fill-opacity="1"
         id="g22"><g
           transform="translate(205.91241,180.88499)"
           id="g21"><g
             id="g20"><path
               d="m 2.71875,-8.265625 c 0,-1.65625 0.40625,-3.171875 1.21875,-4.546875 0.8125,-1.382812 1.90625,-2.484375 3.28125,-3.296875 1.382812,-0.8125 2.910156,-1.21875 4.578125,-1.21875 1.65625,0 3.171875,0.40625 4.546875,1.21875 1.382812,0.8125 2.484375,1.914063 3.296875,3.296875 0.8125,1.375 1.21875,2.890625 1.21875,4.546875 0,1.667969 -0.40625,3.195313 -1.21875,4.578125 -0.8125,1.375 -1.914063,2.46875 -3.296875,3.28125 -1.375,0.8125 -2.890625,1.21875 -4.546875,1.21875 -1.667969,0 -3.195313,-0.40625 -4.578125,-1.21875 C 5.84375,-1.21875 4.75,-2.3125 3.9375,-3.6875 3.125,-5.070312 2.71875,-6.597656 2.71875,-8.265625 Z m 0,0"
               id="path19" /></g></g></g><g
         fill="#ff3131"
         fill-opacity="1"
         id="g25"><g
           transform="translate(229.49083,180.88499)"
           id="g24"><g
             id="g23"><path
               d="m 0.8125,0 c 0.757812,-1.882812 1.273438,-4.253906 1.546875,-7.109375 0.269531,-2.863281 0.414063,-6.023437 0.4375,-9.484375 0.019531,-3.457031 0.03125,-6.984375 0.03125,-10.578125 0,-3.613281 -0.011719,-7.140625 -0.03125,-10.578125 -0.023437,-3.445312 -0.167969,-6.597656 -0.4375,-9.453125 -0.273437,-2.863281 -0.789063,-5.238281 -1.546875,-7.125 h 13.859375 c 0.289063,2.179687 0.28125,4.039063 -0.03125,5.578125 -0.3125,1.53125 -0.804687,2.859375 -1.46875,3.984375 -0.667969,1.125 -1.417969,2.125 -2.25,3 -0.835937,0.867187 -1.632813,1.6875 -2.390625,2.46875 -0.761719,0.773437 -1.398438,1.605469 -1.90625,2.5 -0.5,0.886719 -0.75,1.921875 -0.75,3.109375 0,0.980469 0.085938,1.46875 0.265625,1.46875 0.101563,0 0.265625,-0.1875 0.484375,-0.5625 0.21875,-0.382812 0.472656,-0.867188 0.765625,-1.453125 0.613281,-1.226563 1.5625,-2.222656 2.84375,-2.984375 1.289063,-0.757812 2.859375,-1.140625 4.703125,-1.140625 1.488281,0 2.691406,0.07031 3.609375,0.203125 0.925781,0.125 1.847656,0.25 2.765625,0.375 0.925781,0.125 2.113281,0.1875 3.5625,0.1875 1.8125,0 3.113281,-0.332031 3.90625,-1 0.800781,-0.675781 1.203125,-1.957031 1.203125,-3.84375 0,-2.0625 -0.230469,-4.078125 -0.6875,-6.046875 -0.449219,-1.976563 -1.03125,-3.925781 -1.75,-5.84375 h 8.421875 c -0.730469,1.886719 -1.242188,4.261719 -1.53125,7.125 -0.28125,2.855469 -0.433594,6.007813 -0.453125,9.453125 -0.02344,3.4375 -0.03125,6.964844 -0.03125,10.578125 0,3.59375 0.0078,7.121094 0.03125,10.578125 0.01953,3.460938 0.171875,6.621094 0.453125,9.484375 C 34.726562,-4.253906 35.238281,-1.882812 35.96875,0 H 22.109375 c -0.367187,-2.601562 -0.304687,-4.898438 0.1875,-6.890625 0.488281,-2 1.195313,-3.800781 2.125,-5.40625 0.925781,-1.613281 1.882813,-3.097656 2.875,-4.453125 1,-1.363281 1.847656,-2.6875 2.546875,-3.96875 0.707031,-1.289062 1.0625,-2.644531 1.0625,-4.0625 0,-0.351562 -0.08984,-0.679688 -0.265625,-0.984375 -0.179687,-0.3125 -0.46875,-0.46875 -0.875,-0.46875 -0.5,0 -0.992187,0.210937 -1.46875,0.625 -0.46875,0.417969 -1.023437,0.898437 -1.65625,1.4375 -0.625,0.542969 -1.4375,1.023437 -2.4375,1.4375 -1,0.417969 -2.296875,0.625 -3.890625,0.625 -1.449219,0 -2.601562,-0.0625 -3.453125,-0.1875 -0.84375,-0.125 -1.621094,-0.25 -2.328125,-0.375 -0.710938,-0.132813 -1.589844,-0.203125 -2.640625,-0.203125 -1.773437,0 -3.121094,0.390625 -4.046875,1.171875 -0.917969,0.78125 -1.359375,2.09375 -1.328125,3.9375 0.070313,3.21875 0.289063,6.289063 0.65625,9.203125 0.363281,2.917969 1.050781,5.773438 2.0625,8.5625 z m 0,0"
               id="path22" /></g></g></g><g
         fill="#ff3131"
         fill-opacity="1"
         id="g28"><g
           transform="translate(266.271,180.88499)"
           id="g27"><g
             id="g26"><path
               d="m 5.546875,0 c -0.730469,-1.5625 -1.398437,-3.5625 -2,-6 -0.59375,-2.445312 -1.0625,-5.234375 -1.40625,-8.359375 C 1.796875,-17.492188 1.625,-20.835938 1.625,-24.390625 c 0,-2.5 0.097656,-5.125 0.296875,-7.875 0.207031,-2.757813 0.617187,-5.453125 1.234375,-8.078125 0.613281,-2.625 1.5,-4.984375 2.65625,-7.078125 1.15625,-2.101563 2.679688,-3.78125 4.578125,-5.03125 1.90625,-1.25 4.273437,-1.875 7.109375,-1.875 h 16.828125 c -0.71875,1.886719 -1.226563,4.261719 -1.515625,7.125 -0.292969,2.855469 -0.449219,6.007813 -0.46875,9.453125 -0.01172,3.4375 -0.01563,6.964844 -0.01563,10.578125 0,3.59375 0.0039,7.121094 0.01563,10.578125 0.01953,3.460938 0.175781,6.621094 0.46875,9.484375 0.289062,2.855469 0.796875,5.226563 1.515625,7.109375 h -16.5625 C 17.179688,-0.65625 16.644531,-1.535156 16.15625,-2.640625 15.664062,-3.742188 15.421875,-4.925781 15.421875,-6.1875 c 0,-1.851562 0.328125,-3.546875 0.984375,-5.078125 0.65625,-1.539063 1.488281,-2.984375 2.5,-4.328125 1.007812,-1.34375 2.078125,-2.644531 3.203125,-3.90625 1.125,-1.269531 2.191406,-2.566406 3.203125,-3.890625 1.019531,-1.320313 1.851562,-2.710937 2.5,-4.171875 0.65625,-1.46875 0.984375,-3.070312 0.984375,-4.8125 0,-0.332031 -0.03125,-0.613281 -0.09375,-0.84375 -0.05469,-0.238281 -0.183594,-0.359375 -0.390625,-0.359375 -0.367188,0 -0.765625,0.417969 -1.203125,1.25 -0.4375,0.835937 -1,1.886719 -1.6875,3.15625 -0.6875,1.273437 -1.574219,2.558594 -2.65625,3.859375 -1.273437,1.523438 -2.742187,2.96875 -4.40625,4.34375 -1.667969,1.375 -3.398437,2.5 -5.1875,3.375 -1.792969,0.867188 -3.558594,1.296875 -5.296875,1.296875 -0.542969,0 -1.03125,-0.02344 -1.46875,-0.07813 -0.429688,-0.0625 -0.78125,-0.0078 -1.0625,0.15625 C 5.070312,-16.050781 4.9375,-15.644531 4.9375,-15 c 0,1.167969 0.304688,2.636719 0.921875,4.40625 0.625,1.773438 1.394531,3.589844 2.3125,5.453125 C 9.097656,-3.273438 9.992188,-1.5625 10.859375,0 Z m -0.4375,-33.625 c 0,1.667969 0.648437,2.9375 1.953125,3.8125 1.300781,0.867188 2.945312,1.296875 4.9375,1.296875 2.6875,0 5.1875,-0.460937 7.5,-1.390625 2.320312,-0.925781 4.304688,-2.328125 5.953125,-4.203125 1.644531,-1.882813 2.757813,-4.222656 3.34375,-7.015625 0.144531,-0.6875 0.257813,-1.375 0.34375,-2.0625 0.09375,-0.6875 0.15625,-1.273438 0.1875,-1.765625 0.03906,-0.488281 0.0078,-0.734375 -0.09375,-0.734375 -0.117187,0 -0.261719,0.273438 -0.4375,0.8125 -0.4375,1.199219 -1.121094,2.351562 -2.046875,3.453125 -0.917969,1.105469 -2.0625,2.011719 -3.4375,2.71875 -1.375,0.699219 -2.933594,1.046875 -4.671875,1.046875 -1.09375,0 -2.011719,-0.07813 -2.75,-0.234375 -0.742187,-0.164063 -1.492187,-0.328125 -2.25,-0.484375 -0.761719,-0.164062 -1.6875,-0.25 -2.78125,-0.25 -1.480469,0 -2.808594,0.445312 -3.984375,1.328125 -1.179688,0.886719 -1.765625,2.109375 -1.765625,3.671875 z m 0,0"
               id="path25" /></g></g></g><g
         fill="#ff3131"
         fill-opacity="1"
         id="g31"><g
           transform="translate(301.42129,180.88499)"
           id="g30"><g
             id="g29"><path
               d="m 17.390625,0 c -2.835937,0 -5.230469,-0.75 -7.1875,-2.25 -1.949219,-1.507812 -3.53125,-3.546875 -4.75,-6.109375 -1.210937,-2.570313 -2.117187,-5.476563 -2.71875,-8.71875 -0.59375,-3.25 -0.949219,-6.628906 -1.0625,-10.140625 -0.105469,-3.507812 -0.03125,-6.96875 0.21875,-10.375 0.257813,-3.40625 0.632813,-6.554688 1.125,-9.453125 0.488281,-2.894531 1.023437,-5.320313 1.609375,-7.28125 h 15.90625 c 0,2.75 -0.371094,5.296875 -1.109375,7.640625 -0.742187,2.335938 -1.695313,4.507812 -2.859375,6.515625 -1.15625,2.011719 -2.398438,3.875 -3.71875,5.59375 -1.324219,1.71875 -2.5625,3.3125 -3.71875,4.78125 -1.15625,1.46875 -2.109375,2.851563 -2.859375,4.140625 -0.742187,1.28125 -1.109375,2.5 -1.109375,3.65625 0,1.992188 0.601562,3.375 1.8125,4.15625 1.21875,0.78125 2.878906,1.171875 4.984375,1.171875 H 26.78125 c 0.539062,0 0.984375,-0.160156 1.328125,-0.484375 0.34375,-0.332031 0.515625,-0.769531 0.515625,-1.3125 0.03906,-1.34375 0.05078,-2.726562 0.03125,-4.15625 -0.02344,-1.4375 -0.03125,-2.953125 -0.03125,-4.546875 0,-2.707031 0,-5.175781 0,-7.40625 0,-2.226563 -0.07422,-4.363281 -0.21875,-6.40625 -0.136719,-2.050781 -0.398438,-4.15625 -0.78125,-6.3125 -0.375,-2.15625 -0.945312,-4.5 -1.703125,-7.03125 h 8.46875 c -0.761719,2.53125 -1.335937,4.875 -1.71875,7.03125 -0.375,2.15625 -0.636719,4.261719 -0.78125,6.3125 -0.148437,2.042969 -0.21875,4.179687 -0.21875,6.40625 0,2.230469 0,4.699219 0,7.40625 0,2.71875 0,5.195313 0,7.421875 0,2.230469 0.07031,4.371094 0.21875,6.421875 0.144531,2.042969 0.40625,4.140625 0.78125,6.296875 0.382813,2.15625 0.957031,4.5 1.71875,7.03125 z m 0,0"
               id="path28" /></g></g></g><g
         fill="#ff3131"
         fill-opacity="1"
         id="g34"><g
           transform="translate(336.62593,180.88499)"
           id="g33"><g
             id="g32"><path
               d="m 30.640625,-7.875 c 0,-0.90625 -0.527344,-1.726562 -1.578125,-2.46875 -1.054688,-0.75 -2.4375,-1.519531 -4.15625,-2.3125 -1.71875,-0.800781 -3.609375,-1.6875 -5.671875,-2.65625 -2.0625,-0.976562 -4.132813,-2.144531 -6.203125,-3.5 -2.0625,-1.363281 -3.953125,-2.992188 -5.671875,-4.890625 -1.71875,-1.90625 -3.105469,-4.148437 -4.15625,-6.734375 C 2.148438,-33.03125 1.625,-36.066406 1.625,-39.546875 c 0,-1.664063 0.253906,-3.367187 0.765625,-5.109375 C 2.898438,-46.394531 3.597656,-48 4.484375,-49.46875 5.367188,-50.9375 6.363281,-52.113281 7.46875,-53 c 1.101562,-0.882812 2.253906,-1.328125 3.453125,-1.328125 H 32 v 14.28125 c -0.511719,0.761719 -1.28125,1.371094 -2.3125,1.828125 -1.03125,0.449219 -2.164062,0.671875 -3.390625,0.671875 -2.136719,0 -4.03125,-0.332031 -5.6875,-1 -1.648437,-0.664063 -3.117187,-1.488281 -4.40625,-2.46875 -1.28125,-0.976563 -2.429687,-1.945313 -3.4375,-2.90625 C 11.753906,-44.878906 10.832031,-45.691406 10,-46.359375 9.164062,-47.035156 8.382812,-47.375 7.65625,-47.375 c -0.574219,0 -1.007812,0.21875 -1.296875,0.65625 -0.292969,0.429688 -0.4375,0.917969 -0.4375,1.46875 0,1.375 0.492187,2.570312 1.484375,3.578125 1,1.011719 2.320312,1.964844 3.96875,2.859375 1.65625,0.886719 3.46875,1.804688 5.4375,2.75 1.976562,0.9375 3.953125,2.015625 5.921875,3.234375 1.976563,1.210937 3.789063,2.65625 5.4375,4.34375 1.644531,1.679687 2.960937,3.6875 3.953125,6.03125 1,2.335937 1.5,5.125 1.5,8.375 0,3.054687 -0.328125,5.621094 -0.984375,7.703125 -0.648437,2.074219 -1.421875,3.65625 -2.328125,4.75 C 29.40625,-0.539062 28.570312,0 27.8125,0 H 1.734375 v -15.859375 c 0.40625,-0.289063 0.90625,-0.523437 1.5,-0.703125 0.59375,-0.1875 1.160156,-0.28125 1.703125,-0.28125 1.851562,0 3.578125,0.382812 5.171875,1.140625 1.59375,0.761719 3.113281,1.703125 4.5625,2.828125 1.445313,1.125 2.867187,2.261719 4.265625,3.40625 1.394531,1.136719 2.816406,2.085938 4.265625,2.84375 1.445313,0.761719 2.984375,1.140625 4.609375,1.140625 0.800781,0 1.472656,-0.253906 2.015625,-0.765625 0.539063,-0.507812 0.8125,-1.050781 0.8125,-1.625 z m 0,0"
               id="path31" /></g></g></g></g></g></svg>
